<?xml version="1.0" encoding="UTF-8"?>
<svg xmlns="http://www.w3.org/2000/svg" width="64" height="64" viewBox="0 0 64 64" fill="none">
  <path d="M38.6999 48.477L48.1278 57.9049C50.7467 60.5238 55.286 60.5238 57.9049 57.9049C60.6984 55.286 60.6984 50.7467 57.9049 48.1278L48.477 38.6999C50.2229 35.3827 51.2705 31.5417 51.2705 27.5261C51.2705 26.8277 51.2705 26.1294 51.0959 25.6056L57.5557 19.1458C58.2541 18.4474 58.2541 17.3998 57.5557 16.7015C56.8574 16.0031 55.8098 16.0031 55.1115 16.7015L50.3975 21.4154C49.35 17.3998 47.2549 13.908 44.2868 10.94C35.0335 1.68667 20.1933 1.68667 10.94 10.94C1.68667 20.1933 1.68667 35.0335 10.94 44.2868C18.622 51.9688 29.9704 53.191 38.6999 48.477ZM55.286 50.5721C56.6828 51.9688 56.6828 54.0639 55.286 55.4606C53.8893 56.8574 51.7942 56.8574 50.3975 55.4606L41.4934 46.5565C42.3663 45.8581 43.2393 45.1598 44.1122 44.2868C44.9852 43.4139 45.6836 42.5409 46.3819 41.668L55.286 50.5721ZM13.3843 13.3843C21.2408 5.52767 33.986 5.52767 41.8426 13.3843C44.8106 16.3523 46.7311 20.1933 47.4295 24.3835L43.9376 27.8753L38.1762 22.1138C37.4778 21.4154 36.4302 21.4154 35.7319 22.1138L26.6532 31.1925L22.6376 27.1769C21.9392 26.4786 20.8917 26.4786 20.1933 27.1769L13.2097 34.1606C12.5113 34.8589 12.5113 35.9065 13.2097 36.6048C13.908 37.3032 14.9556 37.3032 15.6539 36.6048L21.4154 30.8433C24.0343 32.9384 25.9548 36.7794 27.8753 34.8589L36.954 25.7802L42.7155 31.5417C43.4139 32.2401 44.4614 32.2401 45.1598 31.5417L47.6041 29.0974C47.2549 33.986 45.1598 38.3507 41.8426 41.8426C33.986 49.6991 21.2408 49.6991 13.3843 41.8426C5.52767 33.986 5.52767 21.2408 13.3843 13.3843Z" fill="#019875"></path>
</svg>
