<?xml version="1.0" encoding="UTF-8"?>
<svg xmlns="http://www.w3.org/2000/svg" width="64" height="64" viewBox="0 0 64 64" fill="none">
  <path d="M40.72 27.072L43.2 25.344V17.6H33.6V16C33.6 11.5888 30.0112 8 25.6 8C21.1888 8 17.6 11.5888 17.6 16V17.6H8V49.6C8 53.136 10.864 56 14.4 56H36.8C40.336 56 43.2 53.136 43.2 49.6V48.256L40.72 46.528C40.48 46.656 40.256 46.784 40 46.896V49.6C40 51.36 38.56 52.8 36.8 52.8H14.4C12.64 52.8 11.2 51.36 11.2 49.6V20.8H17.6V24H20.8V20.8H30.4V24H33.6V20.8H40V26.704C40.256 26.816 40.48 26.944 40.72 27.072ZM20.8 17.6V16C20.8 13.3536 22.9536 11.2 25.6 11.2C28.2464 11.2 30.4 13.3536 30.4 16V17.6H20.8ZM51.2 43.2C50.2024 43.2002 49.2303 43.5155 48.4224 44.1008L42.5328 39.9808C42.9716 38.9778 43.1981 37.8948 43.1981 36.8C43.1981 35.7052 42.9716 34.6222 42.5328 33.6192L48.4208 29.4992C49.2297 30.0838 50.202 30.3989 51.2 30.4C53.8464 30.4 56 28.2464 56 25.6C56 22.9536 53.8464 20.8 51.2 20.8C48.5536 20.8 46.4 22.9536 46.4 25.6C46.4 26.0432 46.48 26.4656 46.5936 26.8752L40.6848 31.0064C39.2082 29.5931 37.2439 28.8029 35.2 28.8C30.7888 28.8 27.2 32.3888 27.2 36.8C27.2 41.2112 30.7888 44.8 35.2 44.8C37.2439 44.7967 39.208 44.0066 40.6848 42.5936L46.5936 46.7248C46.48 47.1344 46.4 47.5568 46.4 48C46.4 50.6464 48.5536 52.8 51.2 52.8C53.8464 52.8 56 50.6464 56 48C56 45.3536 53.8464 43.2 51.2 43.2ZM51.2 24C51.6246 24.0002 52.0316 24.1691 52.3317 24.4694C52.6318 24.7698 52.8002 25.177 52.8 25.6016C52.7998 26.0262 52.6309 26.4332 52.3306 26.7333C52.0302 27.0334 51.623 27.2018 51.1984 27.2016C50.7738 27.2014 50.3668 27.0325 50.0667 26.7322C49.7666 26.4318 49.5982 26.0246 49.5984 25.6C49.5986 25.1754 49.7675 24.7684 50.0678 24.4683C50.3682 24.1682 50.7754 23.9998 51.2 24ZM35.2 41.6C32.5536 41.6 30.4 39.4464 30.4 36.8C30.4 34.1536 32.5536 32 35.2 32C37.8464 32 40 34.1536 40 36.8C40 39.4464 37.8464 41.6 35.2 41.6ZM51.2 49.6C50.9898 49.5999 50.7816 49.5584 50.5875 49.4778C50.3933 49.3973 50.2169 49.2793 50.0683 49.1306C49.9197 48.9818 49.8019 48.8053 49.7215 48.6111C49.6412 48.4168 49.5999 48.2086 49.6 47.9984C49.6001 47.7882 49.6416 47.58 49.7222 47.3859C49.8027 47.1917 49.9207 47.0153 50.0694 46.8667C50.2182 46.7181 50.3947 46.6003 50.5889 46.5199C50.7832 46.4396 50.9914 46.3983 51.2016 46.3984C51.6262 46.3986 52.0332 46.5675 52.3333 46.8678C52.6334 47.1682 52.8018 47.5754 52.8016 48C52.8014 48.4246 52.6325 48.8316 52.3322 49.1317C52.0318 49.4318 51.6246 49.6002 51.2 49.6Z" fill="#019875"></path>
</svg>
