<?xml version="1.0" encoding="UTF-8"?>
<svg xmlns="http://www.w3.org/2000/svg" width="64" height="64" viewBox="0 0 64 64" fill="none">
  <path d="M49.8605 8H14.1395C10.746 8 8 10.746 8 14.1395V49.8605C8 53.254 10.746 56 14.1395 56H49.8605C53.254 56 56 53.254 56 49.8605V14.1395C56 10.746 53.254 8 49.8605 8ZM11.3488 14.1395C11.3488 12.5991 12.5991 11.3488 14.1395 11.3488H49.8605C51.4009 11.3488 52.6512 12.5991 52.6512 14.1395V16.9302H11.3488V14.1395ZM52.6512 49.8605C52.6512 51.4009 51.4009 52.6512 49.8605 52.6512H14.1395C12.5991 52.6512 11.3488 51.4009 11.3488 49.8605V20.2791H52.6512V49.8605ZM17.0419 37.6484C16.7305 37.3333 16.5558 36.9081 16.5558 36.4651C16.5558 36.0221 16.7305 35.597 17.0419 35.2819L22.6233 29.7005C23.2707 29.053 24.3423 29.053 24.9898 29.7005C25.6372 30.3479 25.6372 31.4195 24.9898 32.067L20.5916 36.4651L24.9898 40.8633C25.6372 41.5107 25.6372 42.5823 24.9898 43.2298C24.6549 43.5647 24.2307 43.7209 23.8065 43.7209C23.3823 43.7209 22.9581 43.5647 22.6233 43.2298L17.0419 37.6484ZM38.9879 40.8633L43.386 36.4651L38.9879 32.067C38.3405 31.4195 38.3405 30.3479 38.9879 29.7005C39.6354 29.053 40.707 29.053 41.3544 29.7005L46.9358 35.2819C47.5833 35.9293 47.5833 37.0009 46.9358 37.6484L41.3544 43.2298C41.0195 43.5647 40.5953 43.7209 40.1712 43.7209C39.747 43.7209 39.3228 43.5647 38.9879 43.2298C38.6765 42.9147 38.5019 42.4895 38.5019 42.0465C38.5019 41.6035 38.6765 41.1784 38.9879 40.8633ZM27.6465 44.9042L33.1163 27.0437C33.3842 26.173 34.3219 25.6595 35.2149 25.9274C36.1079 26.1953 36.5991 27.133 36.3312 28.026L30.8614 45.8865C30.7275 46.3104 30.4327 46.6648 30.0402 46.8736C29.6478 47.0823 29.1891 47.1287 28.7628 47.0028C28.5512 46.939 28.3544 46.834 28.1836 46.6938C28.0128 46.5536 27.8714 46.381 27.7677 46.1859C27.6639 45.9908 27.5998 45.7772 27.579 45.5572C27.5582 45.3372 27.5811 45.1153 27.6465 44.9042Z" fill="#019875"></path>
</svg>
