<?xml version="1.0" encoding="UTF-8"?>
<svg xmlns="http://www.w3.org/2000/svg" width="64" height="64" viewBox="0 0 64 64" fill="none">
  <path fill-rule="evenodd" clip-rule="evenodd" d="M34.6506 4C35.0767 4 35.4855 4.1693 35.7868 4.47065L49.6741 18.3581C50.3017 18.9856 50.3017 20.003 49.6741 20.6306L46.8031 23.5016C46.8031 23.5016 46.8031 23.5016 46.8031 23.5016C45.6608 24.6439 44.0291 24.9986 42.583 24.5655L40.1243 27.0242L60.5294 47.4292C61.1569 48.0567 61.1569 49.0741 60.5294 49.7017L55.7951 54.4361C55.4937 54.7374 55.085 54.9067 54.6588 54.9068C54.2326 54.9068 53.8239 54.7375 53.5226 54.4361L33.1174 34.0311L30.6588 36.4897C31.0919 37.9359 30.7372 39.5676 29.5949 40.7098C29.5949 40.7098 29.5949 40.7098 29.5949 40.7098L26.7238 43.5809C26.0963 44.2084 25.0789 44.2084 24.4513 43.5809L10.5639 29.6936C10.2625 29.3922 10.0932 28.9835 10.0932 28.5573C10.0932 28.1311 10.2625 27.7224 10.5639 27.4211L13.435 24.55C14.5773 23.4077 16.2089 23.053 17.6551 23.4861L29.5793 11.5618C29.1463 10.1157 29.5009 8.48402 30.6432 7.34174L33.5143 4.47065C33.8157 4.1693 34.2244 4 34.6506 4ZM31.4944 14.1918L39.9531 22.6505L36.7167 25.8868C36.7164 25.8872 36.716 25.8876 36.7156 25.8879C36.7152 25.8883 36.7148 25.8887 36.7144 25.8891L28.7437 33.8598L20.285 25.4011L31.4944 14.1918ZM35.3899 31.7586L54.6588 51.0274L57.1206 48.5655L37.8518 29.2967L35.3899 31.7586ZM34.6506 7.87938L32.9157 9.61422C32.5141 10.0158 32.5142 10.6667 32.9156 11.0681L43.0766 21.2291C43.4782 21.6307 44.1291 21.6307 44.5305 21.2292L46.2654 19.4943L34.6506 7.87938ZM17.1613 26.8224C16.76 26.421 16.1091 26.4209 15.7075 26.8225L13.9726 28.5573L25.5876 40.1722L27.3224 38.4373C27.7239 38.0359 27.7239 37.3849 27.3224 36.9835L17.1613 26.8224ZM14.4397 54.3046C13.099 54.3046 12.0121 55.3915 12.0121 56.7321V57.7862H39.7087V56.7321C39.7087 55.3915 38.6218 54.3046 37.2812 54.3046H14.4397ZM42.9225 57.7862V56.7321C42.9225 53.6166 40.3967 51.0908 37.2812 51.0908H14.4397C11.3241 51.0908 8.79836 53.6166 8.79836 56.7321V57.7862H5.60689C4.71943 57.7862 4 58.5056 4 59.3931C4 60.2806 4.71943 61 5.60689 61H46.1139C47.0014 61 47.7208 60.2806 47.7208 59.3931C47.7208 58.5056 47.0014 57.7862 46.1139 57.7862H42.9225Z" fill="#019875"></path>
</svg>
