<?xml version="1.0" encoding="UTF-8"?>
<svg xmlns="http://www.w3.org/2000/svg" width="133" height="28" viewBox="0 0 133 28" fill="none">
  <path d="M60.1913 11.0553H58.2884V4.18376H58.2318L55.4587 10.9565H54.1146L51.3415 4.18376H51.285V11.0553H49.382V0.875H51.858L54.7584 8.0922H54.815L57.7154 0.875H60.1913V11.0553Z" fill="white"></path>
  <path d="M64.3153 11.0553H62.1789V0.875H64.3153V11.0553Z" fill="white"></path>
  <path d="M68.3473 11.0553H66.3028V0.875H68.0855L72.8535 7.50664H72.9101V0.875H74.9545V11.0553H73.186L68.4109 4.38836H68.3473V11.0553Z" fill="white"></path>
  <path d="M76.9492 0.875H80.847C83.9101 0.875 85.714 2.69517 85.714 5.92633C85.714 9.15749 83.9101 11.0553 80.847 11.0553H76.9492V0.875ZM79.0856 2.63168V9.29154H80.5924C82.5024 9.29154 83.5352 8.13453 83.5352 5.93339C83.5352 3.8028 82.4741 2.63168 80.5924 2.63168H79.0856Z" fill="white"></path>
  <path d="M49 24.049H51.0586C51.1576 24.8886 52.0348 25.4389 53.1667 25.4389C54.3056 25.4389 55.0838 24.8956 55.0838 24.1478C55.0838 23.4847 54.5957 23.1178 53.3648 22.8427L52.0348 22.5534C50.1531 22.1513 49.2264 21.1989 49.2264 19.7103C49.2264 17.8337 50.8534 16.592 53.1313 16.592C55.5082 16.592 57.0009 17.8125 57.0362 19.6538H55.0343C54.9635 18.7931 54.2066 18.2711 53.1384 18.2711C52.0843 18.2711 51.3769 18.772 51.3769 19.5268C51.3769 20.1547 51.8721 20.5075 53.0464 20.7756L54.2844 21.0366C56.3288 21.474 57.2202 22.3488 57.2202 23.9009C57.2202 25.8763 55.6143 27.125 53.0818 27.125C50.6271 27.125 49.0637 25.9609 49 24.049Z" fill="white"></path>
  <path d="M58.8257 16.7684H62.9783C65.0722 16.7684 66.5153 18.1582 66.5153 20.2535C66.5153 22.3418 65.0227 23.7386 62.8721 23.7386H60.9621V26.9486H58.8257V16.7684ZM60.9621 18.4545V22.0737H62.4053C63.6291 22.0737 64.3436 21.4246 64.3436 20.2605C64.3436 19.1035 63.6362 18.4545 62.4123 18.4545H60.9621Z" fill="white"></path>
  <path d="M70.2078 18.4333V21.6786H72.047C73.1223 21.6786 73.7519 21.0648 73.7519 20.056C73.7519 19.0683 73.087 18.4333 72.0258 18.4333H70.2078ZM70.2078 23.2236V26.9486H68.0714V16.7684H72.2522C74.6008 16.7684 75.9449 18.003 75.9449 20.0136C75.9449 21.3188 75.2658 22.4476 74.0915 22.9061L76.242 26.9486H73.8227L71.9197 23.2236H70.2078Z" fill="white"></path>
  <path d="M79.7788 26.9486H77.6424V16.7684H79.7788V26.9486Z" fill="white"></path>
  <path d="M83.8108 26.9486H81.7664V16.7684H83.5491L88.3171 23.4H88.3736V16.7684H90.4181V26.9486H88.6495L83.8745 20.2817H83.8108V26.9486Z" fill="white"></path>
  <path d="M96.9897 26.9486H94.8533V18.525H91.9034V16.7684H99.9467V18.525H96.9897V26.9486Z" fill="white"></path>
  <path d="M108.181 25.1849V26.9486H101.418V16.7684H108.181V18.525H103.554V20.9802H107.919V22.6169H103.554V25.1849H108.181Z" fill="white"></path>
  <path d="M112.149 18.4333V21.6786H113.988C115.064 21.6786 115.693 21.0648 115.693 20.056C115.693 19.0683 115.028 18.4333 113.967 18.4333H112.149ZM112.149 23.2236V26.9486H110.013V16.7684H114.193C116.542 16.7684 117.886 18.003 117.886 20.0136C117.886 21.3188 117.207 22.4476 116.033 22.9061L118.183 26.9486H115.764L113.861 23.2236H112.149Z" fill="white"></path>
  <path d="M119.202 24.049H121.26C121.359 24.8886 122.237 25.4389 123.368 25.4389C124.507 25.4389 125.285 24.8956 125.285 24.1478C125.285 23.4847 124.797 23.1178 123.566 22.8427L122.237 22.5534C120.355 22.1513 119.428 21.1989 119.428 19.7103C119.428 17.8337 121.055 16.592 123.333 16.592C125.71 16.592 127.203 17.8125 127.238 19.6538H125.236C125.165 18.7931 124.408 18.2711 123.34 18.2711C122.286 18.2711 121.579 18.772 121.579 19.5268C121.579 20.1547 122.074 20.5075 123.248 20.7756L124.486 21.0366C126.531 21.474 127.422 22.3488 127.422 23.9009C127.422 25.8763 125.816 27.125 123.283 27.125C120.829 27.125 119.265 25.9609 119.202 24.049Z" fill="white"></path>
  <path fill-rule="evenodd" clip-rule="evenodd" d="M8.26632 3.03084C7.72717 3.56806 7.11993 4.53488 6.51551 6.14485C4.04685 12.7206 2.78196 17.4614 2.52512 20.6797C2.26125 23.9862 3.07862 25.091 3.96565 25.4507C4.3864 25.6213 4.95117 25.5887 5.79564 25.0512C6.64901 24.5081 7.59645 23.5594 8.5971 22.2959C10.5904 19.7789 12.5457 16.3399 14.1795 13.4096C14.5104 12.8162 15.264 12.601 15.8627 12.9289C16.4615 13.2569 16.6786 14.0038 16.3477 14.5972C14.7301 17.4984 12.6827 21.1137 10.5457 23.8119C9.48127 25.156 8.33169 26.3551 7.13415 27.1173C5.92771 27.8851 4.48767 28.3152 3.02769 27.7232C0.508457 26.7017 -0.222466 23.9701 0.0555731 20.4861C0.340646 16.914 1.70788 11.9102 4.19377 5.28859C4.8568 3.5225 5.61744 2.18862 6.51 1.29927C7.43711 0.375502 8.52785 -0.0816315 9.71171 0.0119874C10.8305 0.100458 11.8425 0.667307 12.7101 1.37963C13.5887 2.10094 14.4229 3.05663 15.1974 4.10306C16.747 6.19671 18.1784 8.8206 19.3401 11.1167C19.897 12.2175 20.38 13.2166 20.7899 14.0643C21.2643 15.0457 21.6407 15.8242 21.9202 16.323C22.681 17.6803 24.3358 20.4303 26.2957 22.5934C27.2797 23.6795 28.2787 24.5475 29.2186 25.0385C30.1426 25.5213 30.8716 25.5764 31.4887 25.3088C31.6819 25.225 31.9421 24.9996 32.1633 24.3847C32.3851 23.7683 32.5128 22.8989 32.5222 21.799C32.5408 19.6079 32.0896 16.7929 31.3529 13.9471C30.6185 11.1099 29.6203 8.3187 28.5891 6.18588C28.0722 5.11669 27.5635 4.24753 27.0967 3.62864C26.5908 2.95798 26.2724 2.76886 26.1931 2.74406C25.3987 2.49539 24.5129 2.81435 23.4818 3.85363C22.4756 4.86784 21.6156 6.30559 21.0163 7.49342C20.7104 8.09986 19.9664 8.34567 19.3546 8.04245C18.7427 7.73923 18.4947 7.00181 18.8006 6.39537C19.44 5.12789 20.438 3.41976 21.7155 2.1321C22.9681 0.869515 24.7918 -0.269373 26.9391 0.402708C27.806 0.674029 28.5213 1.41674 29.0807 2.15846C29.6793 2.95194 30.2675 3.97571 30.8231 5.12484C31.9369 7.42864 32.9859 10.3756 33.7525 13.3369C34.5168 16.2894 35.0205 19.3331 34.9994 21.8196C34.9888 23.0585 34.8481 24.2326 34.4967 25.2094C34.1447 26.1876 33.527 27.1049 32.4816 27.5582C30.9416 28.226 29.3921 27.9047 28.0634 27.2105C26.7506 26.5246 25.5226 25.415 24.4525 24.2339C22.3042 21.8628 20.5422 18.9202 19.7547 17.5154C19.4523 16.9758 19.0158 16.0751 18.4972 15.0048C18.0835 14.1512 17.6176 13.1897 17.1257 12.2174C15.9769 9.94684 14.6212 7.47551 13.2 5.55539C12.4891 4.59493 11.792 3.8141 11.1298 3.2705C10.4568 2.71792 9.91873 2.49148 9.51469 2.45953C9.17576 2.43273 8.77094 2.52804 8.26632 3.03084Z" fill="white"></path>
</svg>
