<?xml version="1.0" encoding="UTF-8"?>
<svg xmlns="http://www.w3.org/2000/svg" width="64" height="64" viewBox="0 0 64 64" fill="none">
  <path d="M35.8301 24.0371L41.9247 29.1275C42.2117 29.3673 42.5739 29.4986 42.948 29.4983C43.3712 29.4983 43.7771 29.3302 44.0764 29.0309C44.3757 28.7316 44.5439 28.3257 44.5439 27.9024V23.9033C49.0353 23.1421 52.4663 19.2237 52.4663 14.5187C52.4663 9.27015 48.1962 5 42.9475 5H25.685C20.4363 5 16.1666 9.27015 16.1666 14.5187C16.1662 15.3577 16.2769 16.1931 16.4959 17.0031H15.7619C11.8652 17.0031 8.69411 20.1736 8.69411 24.0709C8.69411 27.4192 11.035 30.2311 14.1661 30.9569V33.3144C14.1661 33.7377 14.3342 34.1436 14.6335 34.4429C14.9328 34.7422 15.3387 34.9103 15.7619 34.9104C16.1292 34.9104 16.4926 34.7841 16.7853 34.5396L20.8573 31.1387H27.6848C31.5819 31.1387 34.7526 27.9681 34.7526 24.0709C34.7526 24.0594 34.7517 24.0484 34.7517 24.0375H35.8301V24.0371ZM19.3587 14.5187C19.3587 11.0303 22.1965 8.19223 25.685 8.19223H42.948C46.4361 8.19223 49.2741 11.0303 49.2741 14.5187C49.2741 18.0068 46.4361 20.8448 42.948 20.8448C42.0665 20.8448 41.3517 21.5597 41.3517 22.4411V24.4897L37.4321 21.2161C37.145 20.9763 36.7828 20.8449 36.4087 20.8448H25.6851C22.1966 20.8448 19.3589 18.0068 19.3589 14.5187H19.3587ZM31.5603 24.0709C31.5603 26.2079 29.8218 27.9465 27.6848 27.9465H20.2782C19.9042 27.9465 19.5421 28.0777 19.2549 28.3173L17.3583 29.9019V29.5424C17.3583 28.6609 16.6435 27.9465 15.762 27.9465C13.6253 27.9465 11.8862 26.2079 11.8862 24.0709C11.8862 21.9338 13.6249 20.1952 15.762 20.1952H18.049C19.7855 22.525 22.562 24.0371 25.685 24.0371H31.5595C31.5595 24.0484 31.5603 24.0594 31.5603 24.0709ZM19.9697 47.6954C21.9592 45.3517 21.8501 41.8238 19.6384 39.6125C17.3102 37.2839 13.5217 37.2842 11.1935 39.6125C10.0655 40.7401 9.44444 42.2398 9.44444 43.8349C9.44444 45.2653 9.94522 46.6184 10.8618 47.6959C9.1302 48.5615 7.64551 49.912 6.63207 51.622C5.80151 53.0228 5.78889 54.707 6.59774 56.1274C7.41463 57.5601 8.88482 58.416 10.5313 58.416H20.3006C21.947 58.416 23.4179 57.5602 24.2341 56.1273C25.0431 54.707 25.0304 53.0228 24.1999 51.622C23.1863 49.9121 21.7017 48.5615 19.9697 47.6954ZM21.4605 54.5473C21.3443 54.7507 20.9995 55.2238 20.3006 55.2238H10.5313C9.83233 55.2238 9.48722 54.7506 9.37141 54.5473C9.25895 54.3501 9.03485 53.8285 9.37798 53.2501C10.6368 51.1261 12.9504 49.8068 15.416 49.8068C17.8816 49.8068 20.195 51.1261 21.454 53.2497C21.7971 53.8284 21.5729 54.35 21.4604 54.5473H21.4605ZM13.4504 41.8694C13.9924 41.3278 14.704 41.0567 15.416 41.0567C16.1279 41.0567 16.8394 41.3278 17.3815 41.8695C18.4651 42.9534 18.4651 44.7168 17.3815 45.8005C16.2975 46.8841 14.5344 46.8841 13.4508 45.8005C12.9256 45.2756 12.6366 44.5774 12.6366 43.835C12.6366 43.0924 12.9256 42.3946 13.4504 41.8694ZM57.2539 50.3909C55.8956 48.0993 53.8539 46.3294 51.4804 45.2788C52.84 43.9189 53.589 42.1111 53.589 40.1879C53.589 38.2647 52.8399 36.4566 51.4801 35.0963C48.6722 32.2888 44.1041 32.2891 41.2966 35.0963C39.9367 36.4566 39.1877 38.2644 39.1877 40.1879C39.1877 42.1111 39.9367 43.9193 41.2962 45.2788C38.9228 46.3294 36.8811 48.0993 35.5227 50.3909C34.5422 52.0447 34.5275 54.0334 35.4833 55.7108C36.4483 57.405 38.186 58.416 40.1315 58.416H52.6453C54.5908 58.416 56.3285 57.405 57.2939 55.7108C58.2491 54.0334 58.2345 52.0447 57.2539 50.3909ZM54.5198 54.1308C54.1298 54.815 53.4289 55.2238 52.6453 55.2238H40.1315C39.3475 55.2238 38.6465 54.815 38.2565 54.1308C38.074 53.8101 37.7091 52.962 38.2687 52.0186C39.9616 49.163 43.0727 47.3885 46.3884 47.3885C49.704 47.3885 52.8151 49.163 54.508 52.0186C55.0672 52.962 54.7024 53.8101 54.5198 54.1308ZM42.3799 40.1878C42.3799 39.1173 42.7968 38.1106 43.554 37.3534C44.3356 36.5722 45.3618 36.1814 46.3884 36.1814C47.415 36.1814 48.4416 36.5722 49.2228 37.3534C49.98 38.1106 50.3969 39.1173 50.3969 40.1878C50.3969 41.2588 49.98 42.265 49.2228 43.0222C47.6599 44.585 45.1168 44.585 43.554 43.0222C42.7968 42.2654 42.3799 41.2588 42.3799 40.1878Z" fill="#019875"></path>
</svg>
