<?xml version="1.0" encoding="UTF-8"?>
<svg xmlns="http://www.w3.org/2000/svg" width="64" height="64" viewBox="0 0 64 64" fill="none">
  <path d="M37.536 15.4356C37.3143 15.4349 37.0951 15.4834 36.8941 15.5776C36.6931 15.6717 36.5153 15.8093 36.3734 15.9803L26.5713 27.7726C25.7503 28.7605 26.4506 30.2613 27.7326 30.2613H31.1203V35.0917H23.5552C21.7934 35.0917 20.3328 36.5581 20.3328 38.3165V40.3377C20.2805 40.3224 20.2188 40.3224 20.157 40.3224H12.8038C11.0529 40.3224 9.59188 41.8041 9.59188 43.5624V56.9661H5.51331C5.31445 56.9658 5.11749 57.0049 4.93371 57.0812C4.74994 57.1575 4.58297 57.2694 4.44237 57.4106C4.30178 57.5518 4.19033 57.7195 4.11442 57.904C4.03851 58.0886 3.99963 58.2863 4 58.486C4.00076 58.8882 4.16061 59.2737 4.44439 59.5576C4.72818 59.8416 5.11267 60.0007 5.51331 60.0001H58.4919C58.8916 59.9993 59.2748 59.8396 59.5575 59.5558C59.8401 59.272 59.9992 58.8873 60 58.486C60.0004 58.2868 59.9617 58.0894 59.8861 57.9052C59.8105 57.721 59.6995 57.5536 59.5595 57.4125C59.4194 57.2713 59.2531 57.1593 59.0699 57.0827C58.8867 57.0061 58.6903 56.9665 58.4919 56.9661H54.7018V38.3418C54.7018 36.5744 53.2364 35.1065 51.4799 35.1065H43.9456V30.2613H47.2858C48.5677 30.2613 49.2691 28.7605 48.4471 27.7721L38.6978 15.9799C38.5558 15.8089 38.3781 15.6715 38.1772 15.5775C37.9763 15.4834 37.7572 15.4349 37.5356 15.4356H37.536ZM37.5308 19.32L44.072 27.2274H42.4347C42.0345 27.2276 41.6508 27.3872 41.3678 27.6712C41.0847 27.9551 40.9253 28.3402 40.9247 28.7419L40.9171 56.9661H34.1417V28.7419C34.141 28.3405 33.982 27.9557 33.6993 27.6718C33.4166 27.3879 33.0334 27.2281 32.6336 27.2274H30.9578L37.5308 19.32ZM23.5547 38.1257H30.9065C31.0348 38.1257 31.0965 38.1734 31.0965 38.3165V56.9661H23.3784L23.3547 38.3165C23.3547 38.1734 23.4169 38.1257 23.5547 38.1257ZM44.1347 38.1405H51.4803C51.6138 38.1405 51.6808 38.1987 51.6808 38.3418V56.9661H43.9456V38.2721C43.9646 38.1801 44.0264 38.1405 44.1347 38.1405ZM12.8043 43.3564H20.156C20.2558 43.3564 20.3323 43.4184 20.3323 43.5095V56.9666H12.6142V43.562C12.6142 43.4179 12.676 43.3564 12.8043 43.3564Z" fill="#019875"></path>
  <path d="M15.6322 4C9.24641 4 4.02942 9.23784 4.02942 15.6539C4.02942 22.0653 9.24641 27.2983 15.6322 27.2983C22.0228 27.2983 27.2351 22.0653 27.2351 15.6539C27.2351 9.23784 22.0228 4 15.6322 4ZM15.6322 7.02917C20.3931 7.02917 24.2179 10.8741 24.2179 15.6539C24.2179 20.4291 20.3931 24.2692 15.6322 24.2692C10.8761 24.2692 7.04653 20.4291 7.04653 15.6539C7.04653 10.8741 10.8761 7.02917 15.6322 7.02917Z" fill="#019875"></path>
  <path d="M10.9997 13.512C11.1641 13.6771 11.3592 13.8081 11.5741 13.8975C11.7889 13.9869 12.0192 14.0329 12.2517 14.0329C12.4842 14.0329 12.7145 13.9869 12.9293 13.8975C13.1441 13.8081 13.3393 13.6771 13.5037 13.512C13.6682 13.3469 13.7987 13.151 13.8877 12.9353C13.9767 12.7196 14.0226 12.4885 14.0226 12.255C14.0226 12.0215 13.9767 11.7903 13.8877 11.5747C13.7987 11.359 13.6682 11.163 13.5037 10.998C13.3393 10.8328 13.1441 10.7018 12.9293 10.6124C12.7145 10.5231 12.4842 10.4771 12.2517 10.4771C12.0192 10.4771 11.7889 10.5231 11.5741 10.6124C11.3592 10.7018 11.1641 10.8328 10.9997 10.998C10.8352 11.163 10.7047 11.359 10.6157 11.5747C10.5267 11.7903 10.4808 12.0215 10.4808 12.255C10.4808 12.4885 10.5267 12.7196 10.6157 12.9353C10.7047 13.151 10.8352 13.3469 10.9997 13.512ZM17.7656 20.3049C17.93 20.4701 18.1252 20.6011 18.34 20.6905C18.5548 20.7799 18.7851 20.8259 19.0176 20.8259C19.2502 20.8259 19.4804 20.7799 19.6953 20.6905C19.9101 20.6011 20.1052 20.4701 20.2696 20.3049C20.4341 20.1399 20.5646 19.944 20.6536 19.7283C20.7427 19.5126 20.7885 19.2814 20.7885 19.048C20.7885 18.8145 20.7427 18.5833 20.6536 18.3676C20.5646 18.1519 20.4341 17.956 20.2696 17.791C20.1052 17.6258 19.9101 17.4948 19.6953 17.4054C19.4804 17.316 19.2502 17.27 19.0176 17.27C18.7851 17.27 18.5548 17.316 18.34 17.4054C18.1252 17.4948 17.93 17.6258 17.7656 17.791C17.6011 17.956 17.4707 18.1519 17.3816 18.3676C17.2926 18.5833 17.2468 18.8145 17.2468 19.048C17.2468 19.2814 17.2926 19.5126 17.3816 19.7283C17.4707 19.944 17.6011 20.1399 17.7656 20.3049Z" fill="#019875"></path>
  <path d="M18.1837 11.5752C17.9852 11.5749 17.7886 11.6139 17.6051 11.6901C17.4217 11.7662 17.255 11.8779 17.1146 12.0188L12.0164 17.1374C11.7335 17.4215 11.5746 17.8067 11.5746 18.2084C11.5746 18.61 11.7335 18.9953 12.0164 19.2793C12.2993 19.5633 12.683 19.7229 13.0831 19.7229C13.4832 19.7229 13.8669 19.5633 14.1498 19.2793L19.248 14.1607C19.5309 13.8767 19.6898 13.4915 19.6898 13.0898C19.6898 12.6881 19.5309 12.3029 19.248 12.0188C18.9657 11.7354 18.5829 11.5758 18.1837 11.5752Z" fill="#019875"></path>
</svg>
