<?xml version="1.0" encoding="UTF-8"?>
<svg xmlns="http://www.w3.org/2000/svg" width="64" height="64" viewBox="0 0 64 64" fill="none">
  <g clip-path="url(#clip0_2016_4494)">
    <path d="M59.7334 12.8C57.3802 12.8 55.4668 14.7137 55.4668 17.0667C55.4668 19.4197 57.3804 21.3333 59.7334 21.3333C62.0864 21.3333 64 19.4198 64 17.0667C64 14.7137 62.0864 12.8 59.7334 12.8ZM59.7334 19.2C58.5569 19.2 57.6 18.2433 57.6 17.0667C57.6 15.8902 58.5568 14.9333 59.7334 14.9333C60.91 14.9333 61.8667 15.89 61.8667 17.0667C61.8666 18.2433 60.9099 19.2 59.7334 19.2ZM4.26662 48C1.91363 48 0 49.9137 0 52.2667C0 54.6197 1.91363 56.5333 4.26662 56.5333C6.61975 56.5333 8.53325 54.6197 8.53325 52.2667C8.53325 49.9137 6.61975 48 4.26662 48ZM4.26662 54.4001C3.09013 54.4001 2.13325 53.4433 2.13325 52.2667C2.13325 51.09 3.09 50.1333 4.26662 50.1333C5.44312 50.1333 6.4 51.09 6.4 52.2667C6.4 53.4433 5.44325 54.4001 4.26662 54.4001Z" fill="#019875"></path>
    <path d="M57.6651 14.1482L48.463 9.70554C47.9318 9.44842 47.295 9.67242 47.039 10.2027C46.783 10.7328 47.0059 11.3707 47.5361 11.6267L56.7383 16.0693C56.8644 16.1304 57.0013 16.166 57.1412 16.1741C57.281 16.1822 57.4211 16.1626 57.5534 16.1164C57.6857 16.0702 57.8076 15.9983 57.912 15.905C58.0165 15.8116 58.1015 15.6985 58.1621 15.5722C58.4181 15.042 58.1953 14.4042 57.6651 14.1482ZM48 55.4665C45.6469 55.4665 43.7334 57.3802 43.7334 59.7332C43.7334 62.0862 45.6469 63.9999 48 63.9999C50.3531 63.9999 52.2666 62.0863 52.2666 59.7333C52.2666 57.3803 50.3531 55.4665 48 55.4665ZM48 61.8665C46.8235 61.8665 45.8666 60.9098 45.8666 59.7332C45.8666 58.5565 46.8235 57.5999 48 57.5999C49.1765 57.5999 50.1334 58.5567 50.1334 59.7333C50.1334 60.9099 49.1765 61.8665 48 61.8665Z" fill="#019875"></path>
    <path d="M45.9318 56.815L36.7296 52.3724C36.6036 52.3113 36.4666 52.2757 36.3267 52.2676C36.1868 52.2595 36.0467 52.2791 35.9144 52.3253C35.7821 52.3715 35.6603 52.4434 35.5558 52.5368C35.4513 52.6301 35.3663 52.7432 35.3056 52.8695C35.0496 53.3997 35.2725 54.0375 35.8028 54.2935L45.0049 58.7362C45.131 58.7973 45.2679 58.8328 45.4078 58.8409C45.5477 58.849 45.6878 58.8294 45.8201 58.7832C45.9524 58.737 46.0742 58.6652 46.1787 58.5718C46.2832 58.4784 46.3682 58.3653 46.4289 58.239C46.6848 57.7088 46.4619 57.071 45.9318 56.815ZM32 28.8C29.6469 28.8 27.7334 30.7137 27.7334 33.0667C27.7334 35.4198 29.647 37.3333 32 37.3333C34.3531 37.3333 36.2666 35.4197 36.2666 33.0667C36.2666 30.7137 34.3531 28.8 32 28.8ZM32 35.2001C30.8235 35.2001 29.8666 34.2433 29.8666 33.0667C29.8666 31.8902 30.8234 30.9333 32 30.9333C33.1765 30.9333 34.1334 31.89 34.1334 33.0667C34.1334 34.2433 33.1765 35.2001 32 35.2001Z" fill="#019875"></path>
    <path d="M30.1247 30.2677L23.0559 24.7584C22.5908 24.3989 21.9211 24.4789 21.5583 24.944C21.1967 25.4091 21.2788 26.0789 21.7439 26.4416L28.8127 31.951C28.9998 32.0969 29.2304 32.1762 29.4677 32.1761C29.6302 32.1764 29.7905 32.1395 29.9366 32.0684C30.0826 31.9972 30.2104 31.8936 30.3103 31.7655C30.6719 31.3002 30.5898 30.6304 30.1247 30.2677ZM51.2 27.7334C44.7306 27.7334 39.4666 32.9974 39.4666 39.4667C39.4666 45.9361 44.7306 51.2001 51.2 51.2001C57.6693 51.2001 62.9333 45.9361 62.9333 39.4667C62.9333 32.9974 57.6693 27.7334 51.2 27.7334ZM51.2 49.0666C45.9061 49.0666 41.5999 44.7605 41.5999 39.4666C41.5999 34.1727 45.9061 29.8666 51.2 29.8666C56.4938 29.8666 60.7999 34.1727 60.7999 39.4666C60.7999 44.7605 56.4938 49.0666 51.2 49.0666Z" fill="#019875"></path>
    <path d="M51.2 32C48.8468 32 46.9333 33.9136 46.9333 36.2666C46.9333 38.6197 48.847 40.5332 51.2 40.5332C53.5531 40.5332 55.4666 38.6196 55.4666 36.2666C55.4666 33.9136 53.5531 32 51.2 32ZM51.2 38.4C50.0235 38.4 49.0666 37.4432 49.0666 36.2666C49.0666 35.0901 50.0233 34.1333 51.2 34.1333C52.3764 34.1333 53.3333 35.09 53.3333 36.2666C53.3333 37.4432 52.3764 38.4 51.2 38.4ZM54.2943 42.6666H48.1056C46.2827 42.6666 44.8 44.1099 44.8 45.8826V48.6944C44.7999 48.8815 44.8491 49.0653 44.9425 49.2275C45.0359 49.3896 45.1703 49.5243 45.3322 49.6181C47.1199 50.6528 49.1487 51.2 51.2 51.2C53.2512 51.2 55.28 50.6528 57.0677 49.6181C57.2296 49.5245 57.3639 49.39 57.4574 49.2281C57.5508 49.0661 57.6 48.8825 57.6 48.6955V45.8838C57.6 44.1099 56.1173 42.6666 54.2943 42.6666ZM55.4666 48.0586C52.8117 49.3812 49.5882 49.3812 46.9332 48.0586V45.8838C46.9332 45.2864 47.4591 44.8 48.1055 44.8H54.2942C54.9406 44.8 55.4665 45.2864 55.4665 45.8838L55.4666 48.0586ZM25.6 40.5334C19.1306 40.5334 13.8666 45.7974 13.8666 52.2668C13.8666 58.7361 19.1306 64 25.6 64C32.0693 64 37.3333 58.736 37.3333 52.2666C37.3333 45.7972 32.0693 40.5334 25.6 40.5334ZM25.6 61.8666C20.3061 61.8666 16 57.5605 16 52.2666C16 46.9727 20.3061 42.6666 25.6 42.6666C30.8938 42.6666 35.2 46.9727 35.2 52.2666C35.2 57.5605 30.8938 61.8666 25.6 61.8666Z" fill="#019875"></path>
    <path d="M25.6 44.8001C23.2469 44.8001 21.3334 46.7137 21.3334 49.0667C21.3334 51.4198 23.247 53.3333 25.6 53.3333C27.953 53.3333 29.8666 51.4197 29.8666 49.0667C29.8666 46.7137 27.9531 44.8001 25.6 44.8001ZM25.6 51.2001C24.4235 51.2001 23.4666 50.2433 23.4666 49.0667C23.4666 47.8902 24.4234 46.9333 25.6 46.9333C26.7765 46.9333 27.7334 47.8901 27.7334 49.0667C27.7334 50.2433 26.7765 51.2001 25.6 51.2001ZM28.6944 55.4667H22.5056C20.6828 55.4667 19.2 56.91 19.2 58.6827V61.4944C19.2 61.6816 19.2491 61.8654 19.3426 62.0275C19.436 62.1897 19.5704 62.3244 19.7323 62.4182C21.52 63.4528 23.5487 64.0001 25.6 64.0001C27.6513 64.0001 29.68 63.4528 31.4678 62.4182C31.6296 62.3246 31.764 62.1901 31.8574 62.0282C31.9509 61.8662 32 61.6825 32 61.4956V58.6838C32 56.9099 30.5174 55.4667 28.6944 55.4667ZM29.8666 60.8587C27.2116 62.1813 23.9883 62.1813 21.3333 60.8587V58.6838C21.3333 58.0864 21.8591 57.6001 22.5055 57.6001H28.6943C29.3406 57.6001 29.8665 58.0864 29.8665 58.6838L29.8666 60.8587ZM11.7334 13.8667C5.264 13.8667 0 19.1307 0 25.6001C0 32.0695 5.264 37.3334 11.7334 37.3334C18.2027 37.3334 23.4667 32.0695 23.4667 25.6001C23.4666 19.1307 18.2026 13.8667 11.7334 13.8667ZM11.7334 35.2001C6.4395 35.2001 2.13337 30.8939 2.13337 25.6001C2.13337 20.3062 6.4395 16.0001 11.7334 16.0001C17.0273 16.0001 21.3334 20.3062 21.3334 25.6001C21.3334 30.8939 17.0273 35.2001 11.7334 35.2001Z" fill="#019875"></path>
    <path d="M11.7334 18.1334C9.38025 18.1334 7.46675 20.047 7.46675 22.4C7.46675 24.753 9.38037 26.6666 11.7334 26.6666C14.0865 26.6666 16 24.753 16 22.4C16 20.047 14.0864 18.1334 11.7334 18.1334ZM11.7334 24.5334C10.5569 24.5334 9.6 23.5766 9.6 22.4C9.6 21.2234 10.5567 20.2666 11.7334 20.2666C12.9099 20.2666 13.8667 21.2234 13.8667 22.4C13.8667 23.5766 12.9099 24.5334 11.7334 24.5334ZM14.8277 28.8H8.639C6.81612 28.8 5.33337 30.2432 5.33337 32.016V34.8278C5.33335 35.0149 5.38251 35.1987 5.47592 35.3608C5.56934 35.523 5.70373 35.6577 5.86562 35.7515C7.65337 36.7861 9.68212 37.3334 11.7334 37.3334C13.7846 37.3334 15.8134 36.7861 17.6011 35.7515C17.763 35.6579 17.8974 35.5234 17.9908 35.3615C18.0842 35.1995 18.1334 35.0158 18.1334 34.8289V32.0171C18.1334 30.2432 16.6506 28.8 14.8277 28.8ZM16 34.192C13.3451 35.5146 10.1216 35.5146 7.46662 34.192V32.0171C7.46662 31.4197 7.9925 30.9334 8.63887 30.9334H14.8276C15.474 30.9334 15.9999 31.4197 15.9999 32.0171L16 34.192ZM37.3334 0C30.864 0 25.6 5.264 25.6 11.7334C25.6 18.2027 30.864 23.4667 37.3334 23.4667C43.8027 23.4667 49.0667 18.2027 49.0667 11.7334C49.0666 5.264 43.8026 0 37.3334 0ZM37.3334 21.3334C32.0395 21.3334 27.7334 17.0273 27.7334 11.7334C27.7334 6.4395 32.0395 2.13337 37.3334 2.13337C42.6273 2.13337 46.9334 6.4395 46.9334 11.7334C46.9334 17.0273 42.6273 21.3334 37.3334 21.3334Z" fill="#019875"></path>
    <path d="M37.3334 4.2666C34.9802 4.2666 33.0667 6.18023 33.0667 8.53323C33.0667 10.8862 34.9804 12.7999 37.3334 12.7999C39.6864 12.7999 41.6 10.8864 41.6 8.53335C41.6 6.18035 39.6864 4.2666 37.3334 4.2666ZM37.3334 10.6666C36.1569 10.6666 35.2 9.70985 35.2 8.53323C35.2 7.35673 36.1567 6.39985 37.3334 6.39985C38.51 6.39985 39.4667 7.3566 39.4667 8.53323C39.4666 9.70985 38.5099 10.6666 37.3334 10.6666ZM40.4277 14.9334H34.239C32.4161 14.9334 30.9334 16.3766 30.9334 18.1494V20.9611C30.9333 21.1482 30.9825 21.3321 31.0759 21.4942C31.1693 21.6563 31.3037 21.791 31.4656 21.8849C33.2534 22.9195 35.2821 23.4667 37.3334 23.4667C39.3846 23.4667 41.4134 22.9195 43.2011 21.8849C43.363 21.7913 43.4974 21.6568 43.5908 21.4948C43.6842 21.3329 43.7334 21.1492 43.7334 20.9622V18.1505C43.7334 16.3765 42.2506 14.9334 40.4277 14.9334ZM41.6 20.3254C38.9451 21.648 35.7216 21.648 33.0666 20.3254V18.1505C33.0666 17.5531 33.5925 17.0667 34.2389 17.0667H40.4276C41.074 17.0667 41.5999 17.5531 41.5999 18.1505L41.6 20.3254ZM27.4784 11.0389C27.0955 10.593 26.4224 10.5396 25.9744 10.9226L18.5824 17.248C18.1344 17.6309 18.0821 18.304 18.465 18.752C18.556 18.8586 18.6671 18.9461 18.792 19.0097C18.9169 19.0732 19.0531 19.1115 19.1929 19.1223C19.3326 19.1331 19.4731 19.1162 19.6062 19.0726C19.7394 19.029 19.8627 18.9596 19.969 18.8682L27.361 12.5429C27.8091 12.16 27.8614 11.4869 27.4784 11.0389Z" fill="#019875"></path>
    <path d="M50.9866 28.1611L44.5866 19.6278C44.2335 19.1553 43.5648 19.0624 43.0933 19.4144C42.6218 19.7675 42.5269 20.4363 42.8799 20.9066L49.2799 29.44C49.3793 29.5726 49.5083 29.6803 49.6566 29.7543C49.805 29.8284 49.9685 29.8668 50.1343 29.8666C50.3648 29.8667 50.589 29.7918 50.7733 29.6532C51.2448 29.3002 51.3398 28.6315 50.9866 28.1611ZM42.2325 42.9941C41.8794 42.5226 41.2106 42.4277 40.7391 42.7808L34.7808 47.249C34.3093 47.6021 34.2144 48.2709 34.5674 48.7412C34.6668 48.8739 34.7958 48.9815 34.9441 49.0556C35.0925 49.1296 35.256 49.1681 35.4218 49.1679C35.6522 49.1676 35.8764 49.0927 36.0608 48.9545L42.0191 44.4863C42.4907 44.1334 42.5856 43.4645 42.2325 42.9941ZM14.9334 51.2H7.46665C6.8779 51.2 6.40002 51.6768 6.40002 52.2666C6.40002 52.8565 6.8779 53.3332 7.46665 53.3332H14.9333C15.522 53.3332 15.9999 52.8565 15.9999 52.2666C15.9999 51.6768 15.5221 51.2 14.9334 51.2ZM11.7334 0C9.38027 0 7.46665 1.91363 7.46665 4.26662C7.46665 6.61975 9.38027 8.53325 11.7333 8.53325C14.0864 8.53325 15.9999 6.61963 15.9999 4.26662C16 1.91363 14.0864 0 11.7334 0ZM11.7334 6.4C10.5569 6.4 9.60002 5.44325 9.60002 4.26662C9.60002 3.09013 10.5568 2.13325 11.7334 2.13325C12.9099 2.13325 13.8668 3.09 13.8668 4.26662C13.8666 5.44325 12.9099 6.4 11.7334 6.4Z" fill="#019875"></path>
    <path d="M11.7334 6.3999C11.5933 6.39985 11.4546 6.42741 11.3251 6.48099C11.1957 6.53458 11.0781 6.61314 10.979 6.7122C10.88 6.81125 10.8014 6.92886 10.7478 7.05829C10.6943 7.18772 10.6667 7.32644 10.6667 7.46653V14.9332C10.6667 15.0732 10.6943 15.212 10.7478 15.3414C10.8014 15.4708 10.88 15.5884 10.979 15.6875C11.0781 15.7865 11.1957 15.8651 11.3251 15.9187C11.4546 15.9723 11.5933 15.9998 11.7334 15.9998C11.8735 15.9998 12.0122 15.9723 12.1416 15.9187C12.271 15.8651 12.3886 15.7865 12.4877 15.6875C12.5868 15.5884 12.6653 15.4708 12.7189 15.3414C12.7725 15.212 12.8 15.0732 12.8 14.9332V7.46653C12.8 7.32644 12.7725 7.18772 12.7189 7.05829C12.6653 6.92886 12.5868 6.81125 12.4877 6.7122C12.3886 6.61314 12.271 6.53458 12.1416 6.48099C12.0122 6.42741 11.8735 6.39985 11.7334 6.3999Z" fill="#019875"></path>
  </g>
  <defs>
    <clipPath id="clip0_2016_4494">
      <rect width="64" height="64" fill="white"></rect>
    </clipPath>
  </defs>
</svg>
