<?xml version="1.0" encoding="UTF-8"?>
<svg xmlns="http://www.w3.org/2000/svg" width="64" height="64" viewBox="0 0 64 64" fill="none">
  <path d="M36.5287 37.1284C38.0173 35.8472 38.9818 33.9732 38.9818 31.86C38.9818 28.0104 35.8496 24.8776 32 24.8776C28.1504 24.8776 25.0183 28.011 25.0183 31.86C25.0183 33.9732 25.9828 35.8472 27.4714 37.1284C24.3808 38.7668 22.2471 41.9796 22.2471 45.714C22.2471 47.62 25.1271 47.62 25.1271 45.714C25.1271 41.9246 28.2106 38.8404 32 38.8404C35.7895 38.8404 38.873 41.9246 38.873 45.714C38.873 47.62 41.753 47.62 41.753 45.714C41.753 41.9796 39.6192 38.7668 36.5287 37.1284ZM27.8983 31.8593C27.8983 29.5982 29.7383 27.7569 32 27.7569C34.2618 27.7569 36.1018 29.5982 36.1018 31.8593C36.1018 34.1204 34.2612 35.9604 32 35.9604C29.7389 35.9604 27.8983 34.1204 27.8983 31.8593ZM53.0426 17.371C54.5312 16.0897 55.4957 14.2158 55.4957 12.1025C55.4957 8.25356 52.3636 5.12012 48.514 5.12012C44.6644 5.12012 41.5322 8.25356 41.5322 12.1025C41.5322 14.2139 42.4948 16.0865 43.9808 17.3678C43.17 17.7966 42.3968 18.3028 41.7223 18.9576C40.3552 20.2868 42.3693 22.3496 43.7287 21.0241C45.0088 19.7766 46.7265 19.08 48.514 19.0836C52.3034 19.0836 55.3869 22.1678 55.3869 25.9572C55.3869 27.8632 58.2669 27.8632 58.2669 25.9572C58.2669 22.2228 56.1332 19.0094 53.0426 17.371ZM44.4128 12.1025C44.4128 9.8414 46.2528 8.00012 48.5146 8.00012C50.7764 8.00012 52.6164 9.8414 52.6164 12.1025C52.6164 14.3636 50.7764 16.203 48.5146 16.203C46.2528 16.203 44.4128 14.3636 44.4128 12.1025ZM20.2669 21.0203C21.6455 22.347 23.6346 20.2708 22.2714 18.9505C21.5981 18.2984 20.8276 17.7947 20.0192 17.3678C21.5053 16.0865 22.4672 14.2145 22.4672 12.1032C22.4672 8.25356 19.3351 5.12012 15.4861 5.12012C11.6372 5.12012 8.50435 8.25356 8.50435 12.1025C8.50435 14.2158 9.46883 16.0897 10.9575 17.371C7.86691 19.0094 5.73315 22.2222 5.73315 25.9566C5.73315 27.8625 8.61315 27.8625 8.61315 25.9566C8.61315 22.1672 11.6967 19.083 15.4861 19.083C17.28 19.083 18.978 19.7716 20.2669 21.0203ZM11.3844 12.1025C11.3844 9.8414 13.2244 8.00012 15.4861 8.00012C17.7479 8.00012 19.5879 9.8414 19.5879 12.1025C19.5879 14.3636 17.7479 16.203 15.4861 16.203C13.2244 16.203 11.3844 14.3636 11.3844 12.1025Z" fill="#019875"></path>
  <path d="M46.6471 46.8954C50.8564 40.2074 50.0647 31.25 44.2458 25.4324C37.4938 18.6785 26.5063 18.6785 19.7543 25.4324C13.0017 32.1844 13.0017 43.1719 19.7543 49.9239C23.1303 53.3005 27.5655 54.9882 32.0001 54.9882C35.2077 54.9882 38.4097 54.0922 41.2167 52.3258L46.6177 57.7261C47.3383 58.4449 48.3147 58.8486 49.3325 58.8486C50.3504 58.8486 51.3267 58.4449 52.0474 57.7261C52.7664 57.0055 53.1701 56.0292 53.1701 55.0113C53.1701 53.9933 52.7664 53.017 52.0474 52.2964L46.6471 46.8954ZM21.7908 47.8868C16.1613 42.258 16.1613 33.097 21.7908 27.4682C24.6049 24.6541 28.3028 23.2455 32.0001 23.2455C35.6973 23.2455 39.3953 24.6535 42.2093 27.4682C47.8388 33.097 47.8388 42.258 42.2093 47.8868C36.5805 53.5156 27.4196 53.5156 21.7908 47.8868ZM48.6535 55.689L43.5322 50.5684C44.4365 49.7581 44.0833 50.1114 44.8897 49.2109L50.0109 54.3316C50.9101 55.2321 49.5476 56.5869 48.6535 55.689Z" fill="#019875"></path>
</svg>
